# xmcd CD database file
#
# Track frame offsets:
#	150
#	26520
#	40047
#	56756
#	77897
#	97708
#	116542
#	123174
#	136199
#	147695
#	168363
#
# Disc length: 2473 seconds
#
# Revision: 0
# Processed by: cddbd v1.5.2PL0 Copyright (c) Steve Scherf et al.
# Submitted via: CDex 1.51
#
DISCID=8b09a70b
DTITLE=Bergmund Waal Skaslien - SoundOff
DYEAR=1997
DGENRE=Jazz
TTITLE0=Khatami in Abali
TTITLE1=Feverlah mind
TTITLE2=The gold card business lounge - writing letters in transit
TTITLE3=Air insomnia
TTITLE4=The carpet museum
TTITLE5=Si-o-sehpol - where men meet to sing
TTITLE6=Jamaicaman in Teheran
TTITLE7=Tabu
TTITLE8=Esfahan - beauty and business
TTITLE9=A dynamic Persian's dream
TTITLE10=untitled
EXTD=YEAR: 1997
EXTT0=
EXTT1=
EXTT2=
EXTT3=
EXTT4=
EXTT5=
EXTT6=
EXTT7=
EXTT8=
EXTT9=
EXTT10=
PLAYORDER=
